<svg xmlns="http://www.w3.org/2000/svg" viewBox="0 0 370 370"><g data-name="Scenes"><ellipse cx="66.86" cy="86.51" rx="49.11" ry="48.67" stroke-width="3" stroke-linejoin="round" stroke-linecap="round" stroke="#45413c" fill="#ff6242"/><ellipse cx="66.86" cy="86.51" rx="39.97" ry="39.62" fill="#fff"/><path d="M66.86 58.18a39.86 39.86 0 0 1 39.56 34 39 39 0 0 0 .41-5.65 40 40 0 0 0-79.95 0 40.51 40.51 0 0 0 .41 5.65 39.87 39.87 0 0 1 39.57-34z" fill="#f0f0f0"/><ellipse cx="66.86" cy="86.51" rx="39.97" ry="39.62" fill="none" stroke-width="3" stroke-linejoin="round" stroke-linecap="round" stroke="#45413c"/><path stroke-width="4" fill="none" stroke-linejoin="round" stroke-linecap="round" stroke="#45413c" d="M66.86 111.65V86.52H50.44"/><path d="M355.92 279.32h-29.68a6.91 6.91 0 0 1 6.95 6.88V320a64.8 64.8 0 0 0 22.73-40.68z" fill="#bf8256"/><path d="M326.24 279.32H68.77a6.91 6.91 0 0 0-6.95 6.88v22.62a134.62 134.62 0 0 0 80 26.18h149.9a64.57 64.57 0 0 0 41.48-15v-33.8a6.91 6.91 0 0 0-6.96-6.88z" fill="#dea47a"/><path d="M311.81 214.25s-10.91-15.91-9.54-27.46c14.79 2.3 44.34 6.43 44.34 6.43s-5.95 21 9.95 21z" fill="#e0e0e0" stroke-width="3" stroke-linejoin="round" stroke-linecap="round" stroke="#45413c"/><path d="m305.21 183.49-4.5 1.25 1.56 2a3.19 3.19 0 0 1-1.54 5c-2.29.79-5.24 1.73-8.07 2.43-13.76 5.48-15.1 18.89-32.57 18.9a68.89 68.89 0 0 1-10.1 15.5c6.54 8.13 10.48 22 6.5 32.19-2 5-5.22 9.79-10.43 10.75v7.81h-67.8c1.38-10.32-2.55-12.94-2.55-12.94a32.12 32.12 0 0 1-7.1 4.1c-5 2.1-10.45 1.91-16.28 1.7-5.14-.19-11-.39-17.19 1a9 9 0 0 1-2 .21 9.16 9.16 0 0 1-2-18.13c8.5-1.85 15.89-1.58 21.82-1.37 3 .1 7.16.25 8.33-.24 5.7-2.42 5.7-5.93 5.53-7.1a8.26 8.26 0 0 1-.36-.94A68.16 68.16 0 0 1 146 137.72 68.24 68.24 0 0 1 164.21 91a69.86 69.86 0 0 1 98.08-4.3 68.35 68.35 0 0 1 4.34 97.2 68.4 68.4 0 0 1-.79 10.39c8.79-3.32 28.55-26.52 40.63-16.25a3.19 3.19 0 0 1-1.26 5.45z" fill="#fff"/><ellipse cx="215.42" cy="137.4" rx="69.42" ry="68.8" fill="#fff"/><path d="M148.33 199.13a68.54 68.54 0 0 0-12 17.88 69 69 0 0 0 14 17.6 69.86 69.86 0 0 0 98.08-4.3 68.59 68.59 0 0 0 12-17.89 69 69 0 0 0-14-17.6 69.86 69.86 0 0 0-98.08 4.31z" fill="#f0f0f0"/><path d="M174 248.72a68.24 68.24 0 0 1-28-111" fill="none" stroke-width="3" stroke-linejoin="round" stroke-linecap="round" stroke="#45413c"/><path d="M130.63 183.8a22.3 22.3 0 0 0 6.85 29.37 22.75 22.75 0 0 0 31.52-5.64 22.3 22.3 0 0 0-5.69-31.21 22.7 22.7 0 0 0-12.8-4 44.44 44.44 0 0 1-19.88 11.48z" fill="#fff" stroke-width="3" stroke-linejoin="round" stroke-linecap="round" stroke="#45413c"/><path d="M155.45 166.39a44.54 44.54 0 0 1-33.23 18.85" fill="none" stroke-width="3" stroke-linejoin="round" stroke-linecap="round" stroke="#45413c"/><ellipse cx="144.71" cy="201.86" rx="3.23" ry="3.2" fill="#45413c"/><path d="M238.7 177.26a22.3 22.3 0 0 1-6.85 29.37 22.75 22.75 0 0 1-31.49-5.63 22.29 22.29 0 0 1 5.69-31.21 22.7 22.7 0 0 1 12.8-4 44.44 44.44 0 0 0 19.85 11.47z" fill="#fff" stroke-width="3" stroke-linejoin="round" stroke-linecap="round" stroke="#45413c"/><path d="M213.88 159.85a44.5 44.5 0 0 0 33.22 18.85" fill="none" stroke-width="3" stroke-linejoin="round" stroke-linecap="round" stroke="#45413c"/><ellipse cx="227.85" cy="194.75" rx="3.23" ry="3.2" fill="#45413c"/><path d="M148.68 156.38A68.32 68.32 0 0 1 164.21 91a69.86 69.86 0 0 1 98.08-4.3 68.36 68.36 0 0 1 4.34 97.2" stroke="#87898c" fill="none" stroke-width="3" stroke-linejoin="round" stroke-linecap="round"/><path d="M175.63 89.42a24.38 24.38 0 0 0-28.2 16.49 24.11 24.11 0 0 0 16 30.21A24.41 24.41 0 0 0 194 120.2a23.76 23.76 0 0 0 0-14.31 47.7 47.7 0 0 1-18.37-16.47z" stroke="#87898c" fill="#fff" stroke-width="3" stroke-linejoin="round" stroke-linecap="round"/><path d="M201.71 109a47.71 47.71 0 0 1-30.31-27.67" stroke="#87898c" fill="none" stroke-width="3" stroke-linejoin="round" stroke-linecap="round"/><ellipse cx="163.68" cy="105.68" rx="3.48" ry="3.45" fill="#87898c"/><path d="M242.57 105a24.32 24.32 0 1 1-24 6.08 48 48 0 0 0 24-6.08z" stroke="#87898c" fill="#fff" stroke-width="3" stroke-linejoin="round" stroke-linecap="round"/><path d="M210.28 110.24a48.16 48.16 0 0 0 39.83-10.46" stroke="#87898c" fill="none" stroke-width="3" stroke-linejoin="round" stroke-linecap="round"/><ellipse cx="226.94" cy="122.78" rx="3.48" ry="3.45" fill="#87898c"/><ellipse cx="195.58" cy="143.84" rx="6.18" ry="6.12" fill="#fcd" stroke="#87898c" stroke-width="3" stroke-linejoin="round" stroke-linecap="round"/><path d="M333.19 320v-33.8a6.91 6.91 0 0 0-6.95-6.88H68.77a6.91 6.91 0 0 0-6.95 6.88v22.62" fill="none" stroke-width="3" stroke-linejoin="round" stroke-linecap="round" stroke="#45413c"/><path d="M199.09 240.11a7 7 0 0 1 2.69-4.89A7.11 7.11 0 0 1 212 236.8a6.94 6.94 0 0 1 1.06 5.47l-6.16 27.39-10.34-1.6z" fill="#ffe500" stroke-width="3" stroke-linejoin="round" stroke-linecap="round" stroke="#45413c"/><path fill="#656769" stroke-width="3" stroke-linejoin="round" stroke-linecap="round" stroke="#45413c" d="m206.88 269.66-6.8 9.54-3.54-11.14 10.34 1.6z"/><path d="M178.26 279.33c1.38-10.32-2.55-12.95-2.55-12.95a32.12 32.12 0 0 1-7.1 4.1c-5 2.1-10.46 1.91-16.27 1.7-5.15-.18-11-.39-17.2 1a9.61 9.61 0 0 1-2 .21 9.16 9.16 0 0 1-2-18.13c8.5-1.85 15.89-1.58 21.82-1.37 3 .1 7.17.25 8.33-.24 5.71-2.42 5.71-5.93 5.53-7.1a8.89 8.89 0 0 1-.36-.93" fill="none" stroke-width="3" stroke-linejoin="round" stroke-linecap="round" stroke="#45413c"/><path d="M74.95 266.88h64.75v12.45h0-61.42a3.33 3.33 0 0 1-3.33-3.33v-9.12h0z" fill="#e0e0e0" stroke-width="3" stroke-linejoin="round" stroke-linecap="round" stroke="#45413c"/><rect x="129.1" y="266.88" width="37.09" height="12.45" rx="3.33" fill="#656769" stroke-width="3" stroke-linejoin="round" stroke-linecap="round" stroke="#45413c"/><path d="M103.46 221.47h14.79a3.91 3.91 0 0 1 3.79 2.91l9.71 37.67a3.83 3.83 0 0 1-.69 3.33 3.91 3.91 0 0 1-3.09 1.5h-12.79z" fill="#656769" stroke-width="3" stroke-linejoin="round" stroke-linecap="round" stroke="#45413c"/><path d="M58.62 226.3a3.83 3.83 0 0 1 .7-3.33 3.9 3.9 0 0 1 3.08-1.5h47.07a3.9 3.9 0 0 1 3.78 2.91l9.75 37.67a3.83 3.83 0 0 1-.7 3.33 3.9 3.9 0 0 1-3.08 1.5h-47.1a3.9 3.9 0 0 1-3.78-2.88z" fill="#e0e0e0" stroke-width="3" stroke-linejoin="round" stroke-linecap="round" stroke="#45413c"/><ellipse cx="89.89" cy="244.17" rx="5.56" ry="5.51" fill="#fff" stroke-width="3" stroke-linejoin="round" stroke-linecap="round" stroke="#45413c"/><path fill="none" stroke-width="3" stroke-linejoin="round" stroke-linecap="round" stroke="#45413c" d="m246.06 271.51-.01 7.81"/><path fill="#fff" stroke-width="3" stroke-linejoin="round" stroke-linecap="round" stroke="#45413c" d="M356.56 214.25h-23.41v65.07h22.36"/><path d="M342 217.55a3.32 3.32 0 0 0-3.33-3.3h-35.08a3.31 3.31 0 0 0-3.32 3.3V276a3.31 3.31 0 0 0 3.32 3.3h35.09A3.32 3.32 0 0 0 342 276z" fill="#fff" stroke-width="3" stroke-linejoin="round" stroke-linecap="round" stroke="#45413c"/><path fill="none" stroke-width="3" stroke-linejoin="round" stroke-linecap="round" stroke="#45413c" d="M300.27 221.67h19.93m-19.93 25.67h9.08m-9.08 18.88h16.83m17.71-7.47h16.83m-22.59-29.84h19.27"/><path fill="#fff" stroke-width="3" stroke-linejoin="round" stroke-linecap="round" stroke="#45413c" d="m308.68 221.67 6.76 6.91 4.53-6.91h-11.29z"/><path d="M260.16 213.09c17.48 0 18.74-13.44 32.5-18.92 2.83-.7 5.78-1.64 8.07-2.42a3.19 3.19 0 0 0 1.53-5l-1.55-2 4.5-1.25a3.19 3.19 0 0 0 1.26-5.5c-12.08-10.27-31.85 12.93-40.63 16.25" stroke="#656769" fill="none" stroke-width="3" stroke-linejoin="round" stroke-linecap="round"/><path d="M250 228.57c6.54 8.14 10.48 22 6.49 32.19-1.94 5-5.21 9.79-10.41 10.75-13.17 2.43-15.66-7.08-30.95-3.53-1.4.32-1.88.74-3.52 2.29l-1 1a9.31 9.31 0 0 1-13.08-.55 9.12 9.12 0 0 1 .55-13c.27-.24.52-.48.78-.73 7.35-6.94 15.18-9.92 35.44-5.85 3.17.63 5.82.53 6.16-.23" stroke-miterlimit="10" fill="#fff" stroke-width="3" stroke-linecap="round" stroke="#45413c"/><path d="M116.72 167.54s.7-17 17.63-33.33m-26.16 22.95s1.94-23.4 29.12-39.27" fill="none" stroke-width="3" stroke-linejoin="round" stroke-linecap="round" stroke="#45413c"/><path d="M198 225.7q.85.09 1.68.24c4.81.84 8.48-4.34 5.79-8.39a18.46 18.46 0 0 0-33.32 6 2 2 0 0 0-.05.24c-1 4.77 4.31 8.27 8.51 5.72A27.36 27.36 0 0 1 198 225.7z" fill="#fff" stroke-width="3" stroke-linejoin="round" stroke-linecap="round" stroke="#45413c"/><path d="M172.37 222.8a115.89 115.89 0 0 1 33.13-5.25m-24.47-5.79 3.9 15.64m9.4-17.57.23 15.69" fill="none" stroke-width="3" stroke-linejoin="round" stroke-linecap="round" stroke="#45413c"/><path d="m235.8 304.61 14.06 24s38.07-11.25 38.65-27.45c-7-9.25-16.92-24.29-16.92-24.29s-1.54 19.07-35.79 27.74z" fill="#fff" stroke-width="3" stroke-linejoin="round" stroke-linecap="round" stroke="#45413c"/><path fill="none" stroke-width="3" stroke-linejoin="round" stroke-linecap="round" stroke="#45413c" d="m249.18 307.79 6.11 10.16m5.02-16.18 5.89 9.83m4.14-16.78 6.54 10.16"/><path d="m312.56 299.9-16.35 21.83s25 29.62 39.91 23.87c5.69-9.83 15.52-24.51 15.52-24.51s-17.94 6.02-39.08-21.19z" fill="#fff" stroke-width="3" stroke-linejoin="round" stroke-linecap="round" stroke="#45413c"/><path fill="none" stroke-width="3" stroke-linejoin="round" stroke-linecap="round" stroke="#45413c" d="m314.85 313.08-6.87 9.38m16.65-1.79-6.66 9.06m16.86-2.79-6.7 9.77m-63.26-168.34a68.55 68.55 0 0 1-25.31 70"/></g></svg>