<svg xmlns="http://www.w3.org/2000/svg" viewBox="0 0 370 370"><g data-name="Scenes"><rect x="43.75" y="139.51" width="57.93" height="57.93" rx="2.54" stroke-linecap="round" stroke="#45413c" stroke-linejoin="round" stroke-width="3" fill="#dea47a"/><path fill="#bf8256" stroke-linecap="round" stroke="#45413c" stroke-linejoin="round" stroke-width="3" d="M54.77 150.4h36.02v36.02H54.77z"/><path fill="none" stroke-linecap="round" stroke="#45413c" stroke-linejoin="round" stroke-width="3" d="M54.77 159.41h36.02m-36.02 18h36.02m0-27.01 10.14-10.14m-10.14 46.3 10.14 10.14m-46.3-10.14L44.49 196.7m10.15-46.3-10.15-10.14m10.28 28.15h36.02"/><path d="M183 243.49H66.36c-15.15 0-40-22.27-42-45.43a2.69 2.69 0 0 1 2.68-2.91h178.58a2.66 2.66 0 0 1 2 .85 2.69 2.69 0 0 1 .73 2c-1.25 19-13.97 45.49-25.35 45.49z" fill="#fff" stroke-linecap="round" stroke="#45413c" stroke-linejoin="round" stroke-width="3"/><path d="M119.65 159.78a7.17 7.17 0 0 1 7.06-6h59.94a7.16 7.16 0 0 1 7.13 6.5l3.22 34.87h-83.36z" fill="#fff"/><path d="M119.65 159.78a7.17 7.17 0 0 1 7.06-6h59.94a7.16 7.16 0 0 1 7.13 6.5l3.22 34.87h-83.36z" fill="none" stroke-linecap="round" stroke="#45413c" stroke-linejoin="round" stroke-width="3"/><path d="M175.44 153.82h-28v-31.36a1.79 1.79 0 0 1 1.79-1.79h24.4a1.79 1.79 0 0 1 1.79 1.79z" fill="#fff" stroke-linecap="round" stroke="#45413c" stroke-linejoin="round" stroke-width="3"/><path fill="#ffe500" stroke-linecap="round" stroke="#45413c" stroke-linejoin="round" stroke-width="3" d="M147.46 142.51h27.98v11.31h-27.98z"/><circle cx="140.56" cy="174.48" r="8.62" fill="#00b8f0"/><path d="M27.85 211.24H206a68.15 68.15 0 0 0 2.31-13.24 2.73 2.73 0 0 0-.73-2 2.69 2.69 0 0 0-2-.84H27.06a2.69 2.69 0 0 0-2.68 2.91 42.18 42.18 0 0 0 3.47 13.17z" fill="#ff512e"/><path d="M24.61 200.1h183.52q.1-1.07.18-2.1a2.73 2.73 0 0 0-.73-2 2.69 2.69 0 0 0-2-.84H27.06a2.69 2.69 0 0 0-2.68 2.91c.06.67.14 1.35.23 2.03z" fill="#ff866e"/><path d="M27.85 211.24H206a68.15 68.15 0 0 0 2.31-13.24 2.73 2.73 0 0 0-.73-2 2.69 2.69 0 0 0-2-.84H27.06a2.69 2.69 0 0 0-2.68 2.91 42.18 42.18 0 0 0 3.47 13.17z" fill="none" stroke-linecap="round" stroke="#45413c" stroke-linejoin="round" stroke-width="3"/><path d="M134.47 180.58a8.62 8.62 0 0 1 12.19-12.19z" fill="#80ddff"/><circle cx="140.56" cy="174.48" r="8.62" fill="none" stroke-linecap="round" stroke="#45413c" stroke-linejoin="round" stroke-width="3"/><path d="M147.32 336.64a138.32 138.32 0 0 0 134.25-105.06c-5.19-1.11-7.14-5.09-11.54-5.09-5.11 0-6.91 5.37-14.33 5.37s-9.21-5.37-14.32-5.37-6.91 5.37-14.32 5.37-9.21-5.37-14.33-5.37-6.9 5.37-14.32 5.37-9.21-5.37-14.32-5.37-6.91 5.37-14.33 5.37-9.21-5.37-14.32-5.37-6.91 5.37-14.32 5.37-9.22-5.37-14.33-5.37-6.9 5.37-14.32 5.37-9.21-5.37-14.32-5.37-6.91 5.37-14.33 5.37-9.21-5.37-14.32-5.37-6.91 5.37-14.32 5.37-9.22-5.37-14.33-5.37-6.91 5.37-14.32 5.37-9.21-5.37-14.33-5.37h-.28a138.31 138.31 0 0 0 135.4 110.15z" fill="#80ddff"/><path d="M270 226.49c-5.11 0-6.91 5.37-14.33 5.37s-9.21-5.37-14.32-5.37-6.91 5.37-14.32 5.37-9.21-5.37-14.33-5.37-6.9 5.37-14.32 5.37-9.21-5.37-14.32-5.37-6.91 5.37-14.33 5.37-9.21-5.37-14.32-5.37-6.91 5.37-14.32 5.37-9.22-5.37-14.33-5.37-6.9 5.37-14.32 5.37-9.21-5.37-14.32-5.37-6.91 5.37-14.33 5.37-9.21-5.37-14.32-5.37-6.91 5.37-14.32 5.37-9.22-5.37-14.33-5.37-6.91 5.37-14.32 5.37-9.21-5.37-14.33-5.37" fill="none" stroke-linecap="round" stroke="#45413c" stroke-linejoin="round" stroke-width="3"/><path d="M289 328.25c.53-6.68.86-13.29 1-19.83.37-.05.75-.11 1.12-.18a12.75 12.75 0 0 0 4.68-2c5.56-3.78 18.56-12.66 14.28-33.66-2.35-11.55-11-18.48-19.11-22.12A73.5 73.5 0 1 0 237.6 249c1.44 28.49-.57 55.23-3.17 79.3z" fill="#fff"/><path d="M237.58 289.31q.31-6.69.44-13.56a23.28 23.28 0 0 0 8.87-1.81s-.7 14.74-9.31 15.37zm25.12-33.91a.86.86 0 0 1 .64-1.5 61.93 61.93 0 0 0 13 .14.85.85 0 0 1 .85.4.88.88 0 0 1 0 .95c-1.1 1.54-2.94 3.61-5.09 3.89-3.7.48-7.33-2.06-9.4-3.88zm27.3 52.81c.3-12 .06-23.84-.51-35.4 0 0 4.53 3.5 5.23 13 .73 10-4.72 22.64-4.72 22.64zm49-137.61a73.52 73.52 0 1 0-102.6 77.82l7.29 2.79c-37.38-22.44-30-65.54-30-65.54z" fill="#e0e0e0"/><circle cx="237.6" cy="191.71" r="35.4" fill="#e0e0e0"/><path d="M327.58 149.11a35.4 35.4 0 0 0 1.29 70.64 73.61 73.61 0 0 0 3.48-70.75 34.63 34.63 0 0 0-4.77.11z" fill="#e0e0e0"/><path d="M289 328.25c.53-6.68.86-13.29 1-19.83.37-.05.75-.11 1.12-.18a12.75 12.75 0 0 0 4.68-2c5.56-3.78 18.56-12.66 14.28-33.66-2.35-11.55-11-18.48-19.11-22.12A73.5 73.5 0 1 0 237.6 249c1.44 28.49-.57 55.23-3.17 79.3" fill="none" stroke-linecap="round" stroke="#45413c" stroke-linejoin="round" stroke-width="3"/><circle cx="257.21" cy="108.11" r="7.35" fill="#ff512e" stroke-linecap="round" stroke="#45413c" stroke-linejoin="round" stroke-width="3"/><path d="m166.93 174.79 26.37-3.25a73.53 73.53 0 0 1 144.61-6.72l-136.52 16.83-33.11 4.08a5.51 5.51 0 1 1-1.35-10.94z" fill="#ff512e"/><path d="M263.86 121.29a75.92 75.92 0 0 1 69 44.15l5.09-.62a73.53 73.53 0 0 0-144 2.85 75.92 75.92 0 0 1 69.91-46.38z" fill="#ff866e"/><path d="M192.74 180.37a75.72 75.72 0 0 1 .52-8.83l-26.33 3.25a5.51 5.51 0 1 0 1.35 10.94l24.5-3c-.03-.8-.04-1.58-.04-2.36zm104.95-19.85-26.44 3.26a3.67 3.67 0 0 0-3.2 4.09l.67 5.48 29.68-3.66z" fill="#ff512e"/><path d="M297.69 160.52a11 11 0 1 0-21.88 2.69z" fill="#e0e0e0" stroke-linecap="round" stroke="#45413c" stroke-linejoin="round" stroke-width="3"/><path d="m275.81 163.21-4.56.57a3.67 3.67 0 0 0-3.2 4.09l.67 5.48" fill="none" stroke-linecap="round" stroke="#45413c" stroke-linejoin="round" stroke-width="3"/><path d="M192.82 176.69c.1-1.7.25-3.39.47-5.06" fill="#fff" stroke-linecap="round" stroke="#45413c" stroke-linejoin="round" stroke-width="3"/><path d="m166.93 174.79 26.37-3.25a73.53 73.53 0 0 1 144.61-6.72l-136.52 16.83h0l-33.11 4.08a5.51 5.51 0 1 1-1.35-10.94z" fill="none" stroke-linecap="round" stroke="#45413c" stroke-linejoin="round" stroke-width="3"/><path d="M296.5 202.72c.51 6.07-3.18 11.33-8.24 11.75s-9.57-4.16-10.07-10.23z" fill="#ffa694" stroke-linecap="round" stroke="#45413c" stroke-linejoin="round" stroke-width="3"/><circle cx="327.07" cy="182.12" r="31.24" fill="#fff" stroke-linecap="round" stroke="#45413c" stroke-linejoin="round" stroke-width="3"/><circle cx="341.52" cy="178.53" r="3.68" fill="#45413c"/><circle cx="240.99" cy="189.26" r="31.24" fill="#fff" stroke-linecap="round" stroke="#45413c" stroke-linejoin="round" stroke-width="3"/><circle cx="255.44" cy="185.67" r="3.68" fill="#45413c"/><path d="m227.87 223.93-12.55 6.83-17.24-31.71 12.55-6.82a1.72 1.72 0 0 1 2.33.69l15.6 28.68a1.72 1.72 0 0 1-.69 2.33z" fill="#87898c" stroke-linecap="round" stroke="#45413c" stroke-linejoin="round" stroke-width="3"/><rect x="197.14" y="196.84" width="19.22" height="36.08" rx="1.72" transform="rotate(-28.54 206.714 214.85)" fill="#fff" stroke-linecap="round" stroke="#45413c" stroke-linejoin="round" stroke-width="3"/><circle cx="202.85" cy="207.72" r="2.74" fill="#656769"/><path d="M246.89 273.94c-14.56 6.48-44.28-5-49.34-25.1-7.68-30.57 7.66-44.8 17.27-36.75 8.5 7.13-.3 15.17 6.34 30.81 2.19 5.18 10.5 5.62 18.32 6.78" fill="#fff" stroke-linecap="round" stroke="#45413c" stroke-linejoin="round" stroke-width="3"/><path d="M289.5 272.81c.57 11.56.81 23.36.51 35.4m-7.51-55.27a73.11 73.11 0 0 0 8.48-2.47M237.6 249a72.94 72.94 0 0 0 12.4 4" fill="none" stroke-linecap="round" stroke="#45413c" stroke-linejoin="round" stroke-width="3"/><path d="M23.92 38.59c61.19-.79 132.39.34 193.59 2 0 1.3 1.36 33.35-.41 76.44v1l-1-.07-29.44-.85c-1.23 8.84.29 14.8 1.86 20.85-4.6-3.15-12.29-6.5-21.29-20.46-151.75.48-142 .43-143.34.49-.89-19.66-1.48-55.5.03-79.4z" fill="#fff" stroke="#45413c" stroke-linejoin="round" stroke-width="3"/><path d="M44.11 83.12h.18c.88 0 1.9-.22 1.9-1.19 0-1.72-2.87-1.9-7-5.3a9 9 0 0 1-3-6.85c0-5 4.28-9.06 9.67-9.06 4.59 0 8.44 2.3 8.44 6 0 1.72-1.15 2.74-3 2.82h-.22c-1.28 0-3.1-.3-4.24-.3h-.22c-.93 0-1.68.39-1.68 1.06a1.77 1.77 0 0 0 .7 1.1c2.48 2.3 9.9 5.17 9.9 10.42 0 6.68-4.68 9.59-10.91 9.81H44c-3.18 0-7.2-.84-8.61-2.69a4.69 4.69 0 0 1-1-2.87A4.32 4.32 0 0 1 36 82.41a2.91 2.91 0 0 1 1.63-.57c1.54 0 4.67 1.28 6.48 1.28zm26.73 5.52a35.86 35.86 0 0 1-.4-5.92c0-3.09-.48-3.53-2.51-3.53S65 79.5 65 81.57c0 1.82.22 3.1.22 4.38 0 2.52-.88 5-3.18 5a3.76 3.76 0 0 1-2.25-.76c-1.24-.88-2.08-3-2.61-5.47a47.56 47.56 0 0 1-.84-9.28c0-2.16.14-5.3.4-7.82a14.24 14.24 0 0 1 .75-4A4 4 0 0 1 61.34 61c2.48 0 3.54 1.51 3.54 3.71v4c0 2.21.26 3.8 2.34 3.8 3 0 3.27-.93 3.27-5.39v-.92c0-3.32 1.77-5.48 4.64-5.48 2.47 0 3.84 1 4.15 4.55.09 1 .13 2.38.13 4.06a130.65 130.65 0 0 1-1.19 18.11c-.35 2.08-1.24 3.67-3.4 3.67-1.82.05-3.58-.39-3.98-2.47zm20.63-16.3v4.33c0 2.25-.17 4.82-.17 6.94 0 .75.26 1.06.62 1.23 1.54.8 2 1.11 2 3 0 1.41-.44 2.78-1.9 3.14a34.24 34.24 0 0 1-5.47.26c-3.93 0-5.39-.31-5.39-3.22 0-1 .09-2.12 1-2.61 1.06-.57 1.63-1.06 1.68-1.59v-9.67c0-1 .09-2.21.09-3.32a9.51 9.51 0 0 0-.26-2.65c-.22-.66-.67-.92-1.37-1.19s-1.2-1.32-1.2-2.56a4.8 4.8 0 0 1 .45-2.21c.79-1.41 3.4-1.55 5.47-1.55h1c4.11 0 6 .62 6.14 3.05v.49a3 3 0 0 1-2.12 3.18.88.88 0 0 0-.53.79c-.04 1.29-.04 2.88-.04 4.16zm13.97 11.35c-.23 2.17-.31 3.89-.71 5.92-.49 1.24-2.47 2-4.11 2s-3.4-.8-3.58-2.26a109.59 109.59 0 0 1-.53-12.19c0-4.77.27-9.54.58-14 1.28-1.59 4.72-2.39 8-2.39 6.67 0 13.69 2.7 13.69 11.31 0 7.47-5.87 11.66-12.85 11.66zm-.27-7.9a1.86 1.86 0 0 0 1.24.44 4.41 4.41 0 0 0 4.59-4.42 3.72 3.72 0 0 0-3.76-4 3.41 3.41 0 0 0-2 .57zm23.73 7.9c-.23 2.17-.31 3.89-.71 5.92-.49 1.24-2.47 2-4.11 2s-3.4-.8-3.58-2.26a109.59 109.59 0 0 1-.5-12.24c0-4.77.27-9.54.58-14 1.28-1.59 4.72-2.39 8-2.39 6.67 0 13.69 2.7 13.69 11.31 0 7.47-5.87 11.66-12.85 11.66zm-.27-7.9a1.86 1.86 0 0 0 1.24.44 4.41 4.41 0 0 0 4.55-4.42 3.72 3.72 0 0 0-3.76-4 3.41 3.41 0 0 0-2 .57zm25.76-2.96c2.87 0 5.43 0 5.43 2.21 0 4.24-4.37 4.15-7.64 4.5v.58c0 1.32.44 2.87 2.3 3.18a21.09 21.09 0 0 0 2.38.13c1.77 0 3.36-.4 5-.4a2.74 2.74 0 0 1 2.7 2.83c0 4.59-5.66 5.52-9.37 5.52-4.59 0-7.9-1.15-9.41-3.09-1.76-2.3-2.43-7.07-2.43-11.49 0-5.61 1.37-12 4.64-14.13 1.68-1.11 5.13-2.08 8.84-2.08 3.35 0 7.15.88 7.15 4.46a5.19 5.19 0 0 1-.08 1.11c-1.15 3.66-10.65.44-11.53 4a6.75 6.75 0 0 0-.14 1.46 8 8 0 0 0 .09 1.24zm34.15 3.62c0 8.79-5 14.89-14.58 14.89-4.73 0-8-.93-8.26-6.1V63.82a2.34 2.34 0 0 1 .84-1.9c1.46-1.24 4.42-1.28 6-1.28 9.33 0 16 6.89 16 15.81zm-13.61-7.29a1.72 1.72 0 0 0-1.32.62v11.71a1.73 1.73 0 0 0 1.23.35c2.65 0 4.69-2.87 4.69-6.41 0-3.09-1.68-6.27-4.29-6.27zm20.59-9.63a8.82 8.82 0 0 1 4 .93 5.56 5.56 0 0 1 3 3.8 13.41 13.41 0 0 1 .44 3.66c0 4.91-1.72 11-3 13-.8 1.28-1.95 2.47-3.36 2.47a2.56 2.56 0 0 1-1.6-.49c-2.34-1.59-2.74-5.26-2.74-9.94 0-2.08.09-4.37.09-6.8l-.09-1.86v-2.16a4.49 4.49 0 0 1 .13-1.15c.44-1.06 1.72-1.46 3.13-1.46zm1.68 25.36c1.81 0 3.49 1.06 3.49 3 0 2.6-2.3 3.75-4.59 3.75a3.13 3.13 0 0 1-3.1-2.95 3.7 3.7 0 0 1 2.38-3.4 4.48 4.48 0 0 1 1.82-.4z" fill="#ff512e"/></g></svg>