<svg xmlns="http://www.w3.org/2000/svg" viewBox="0 0 370 370"><g data-name="Scenes"><rect x="99.08" y="81.44" width="226.82" height="163.74" rx="10" fill="#00b8f0"/><path fill="#4acfff" d="M99.08 229.36 246.99 81.44h-9.42L99.08 219.94v9.42zm0-49.4v19.91L217.51 81.44h-19.92l-98.51 98.52z"/><rect x="99.08" y="81.44" width="226.82" height="163.74" rx="10" stroke-width="4" stroke-linejoin="round" stroke-linecap="round" stroke="#45413c" fill="none"/><path d="m311.78 64.35-13.21-25.12a4.17 4.17 0 0 0-7.22-.29L276.19 63a4.17 4.17 0 0 0 3.36 6.39l6.79.27c-4.15 22.6-14.59 28.18-29.74 36.25-11 5.83-23.37 12.45-36.14 26.29S202 158.59 197.4 168.75c-8.55 18.88-13.26 29.27-57.94 32.15a7.16 7.16 0 0 0 .45 14.3h.47c24.38-1.57 40-5.64 50.66-13.19 10.33-7.32 14.74-17.05 19.4-27.34 4.4-9.7 9.38-20.7 20.54-32.8s21.92-17.81 32.35-23.36c16.59-8.84 32.3-17.23 37.44-48.32l7.15.28a4.18 4.18 0 0 0 3.86-6.11z" fill="#ffe500" stroke-width="4" stroke-linejoin="round" stroke="#45413c"/><circle cx="306.78" cy="50.89" r="8.71" fill="#fff" stroke-width="4" stroke-linejoin="round" stroke-linecap="round" stroke="#45413c"/><circle cx="306.78" cy="50.89" r="2.12" fill="#45413c"/><circle cx="282.33" cy="50.43" r="8.71" fill="#fff" stroke-width="4" stroke-linejoin="round" stroke-linecap="round" stroke="#45413c"/><circle cx="282.33" cy="50.43" r="2.12" fill="#45413c"/><path stroke="#4acfff" stroke-width="4" stroke-linejoin="round" stroke-linecap="round" fill="none" d="M126.09 108.45v115.11h172.73"/><path stroke="#4acfff" stroke-width="4" stroke-linejoin="round" stroke-linecap="round" fill="none" d="m119.47 115.38 6.62-6.93 6.72 6.93m159.04 101.77 6.92 6.62-6.92 6.72"/><ellipse cx="226.43" cy="281.46" rx="24.54" ry="7.67" transform="rotate(-58.01 226.413 281.458)" fill="#ffe500" stroke-width="4" stroke-linejoin="round" stroke-linecap="round" stroke="#45413c"/><ellipse cx="226.43" cy="281.46" rx="15.18" ry="2.83" transform="rotate(-58.01 226.413 281.458)" fill="#ebcb00"/><path d="M160.14 333c6.14-24 1.08-50.43-4.08-79.26 3.56-3.09 23.72-22.67 23.72-55.49a77.08 77.08 0 1 0-93.13 75.39c2.65 20 4.37 39.83 1.55 59.36" fill="#fff"/><path d="M113.72 251.71a77.09 77.09 0 0 1-74.42-97.17 77.08 77.08 0 1 0 137.87 63.84 77 77 0 0 1-63.45 33.33z" fill="#f0f0f0"/><path d="M143.92 293.25a10.28 10.28 0 0 1-.8-20.53c.45 0 30.75-2.85 46.49-25a10.27 10.27 0 1 1 16.76 11.89c-21.44 30.22-60 33.51-61.65 33.64-.27-.01-.53 0-.8 0z" fill="#fff" stroke-width="4" stroke-linejoin="round" stroke-linecap="round" stroke="#45413c"/><path d="M160.14 333c6.14-24 1.08-50.43-4.08-79.26 3.56-3.09 23.72-22.67 23.72-55.49a77.08 77.08 0 1 0-93.13 75.39c2.65 20 4.37 39.83 1.55 59.36" stroke-width="4" stroke-linejoin="round" stroke-linecap="round" stroke="#45413c" fill="none"/><path d="M76.38 122s24.22 44.89 53.62 42.76c29.15-2.11 42-.91 42.15 0 7.64-5.95-.87-26.85-19.28-30.86-5.4-10.55-16-20.31-36.92-15.16C102.7 112.9 88 112.22 76.38 122z" fill="#ff6242"/><path d="M131.42 158.38a34.76 34.76 0 0 1-10.59-.91 6.34 6.34 0 0 1-4.89-6c-.54-24.1-31.31-34.07-31.88-34.27a32.19 32.19 0 0 0-7.68 4.8c2.43 4.49 16.76 28.58 35.5 38.48l.1.05a33.41 33.41 0 0 0 18 4.2c29.15-2.11 42-.91 42.15 0-.13-.88-11.56-8.47-40.71-6.35z" fill="#e04122"/><path d="M76.38 122s24.22 44.89 53.62 42.76c29.15-2.11 42-.91 42.15 0 7.64-5.95-.87-26.85-19.28-30.86-5.4-10.55-16-20.31-36.92-15.16C102.7 112.9 88 112.22 76.38 122z" stroke-width="4" stroke-linejoin="round" stroke-linecap="round" stroke="#45413c" fill="none"/><path d="M104 129.62s8.34-2.89 12-10.88" fill="#ff6242" stroke-width="4" stroke-linejoin="round" stroke-linecap="round" stroke="#45413c"/><path d="M76.38 122s35.59 10.79 32.51 38.75-79.66 42.39-80.75 57.09c-8.89-4.3-9.7-19.45-5.07-24.46-5.4-9.63-.52-23.46 6.2-25.21-5.43-9.6 4.72-26.65 15.57-26.65 1.61-11.11 12.53-20.87 31.54-19.52z" fill="#ff6242"/><path d="M122.39 142.28a169.26 169.26 0 0 0 30.47-8.38" fill="#ff6242" stroke-width="4" stroke-linejoin="round" stroke-linecap="round" stroke="#45413c"/><path d="M76.38 122s24.4 9.39 21.32 37.34-77.41 30.21-69.56 58.5c1.09-14.7 77.66-29.13 80.75-57.09S76.38 122 76.38 122z" fill="#e04122"/><path d="M76.38 122s35.59 10.79 32.51 38.75-79.66 42.39-80.75 57.09c-8.89-4.3-9.7-19.45-5.07-24.46-5.4-9.63-.52-23.46 6.2-25.21-5.43-9.6 4.72-26.65 15.57-26.65 1.61-11.11 12.53-20.87 31.54-19.52z" stroke-width="4" stroke-linejoin="round" stroke-linecap="round" stroke="#45413c" fill="none"/><path d="M44.84 141.5s18.71-2.61 29.83-9.07m-45.4 35.72s32.26-6 53.15-22.63m-59.35 47.84s47.66-12.63 71.86-37.45m16.89 57.39c1.66-.38 8.68-6.42 9.48-8.57m16.32-6.03c1.34 1.06 10.45 2.74 12.62 2m-10.64 17.93a8.81 8.81 0 0 1-8.6 10.85" stroke-width="4" stroke-linejoin="round" stroke-linecap="round" stroke="#45413c" fill="none"/><path d="m212.71 294.72-.18.28zm.39-.64v.06zm-.03.06c-.15.23-.27.43-.36.58zm.38-.61h0c-.13.2-.24.39-.35.55.11-.16.22-.34.35-.55zm18.98-30.38zm-.29.46.29-.46zm0 0-.15.24h0zm-92.48-41.18a8.77 8.77 0 0 1-4.33 5.92c14.22 9.24 84.22 55.42 78.12 65.18L232 263.85c-4.57 7.3-76.52-32.54-92.34-41.42zM212.53 295z" fill="#ffe500" stroke-width="4" stroke-linejoin="round" stroke-linecap="round" stroke="#45413c"/><circle cx="197.99" cy="253.63" r="10.28" fill="#fff" stroke-width="4" stroke-linejoin="round" stroke-linecap="round" stroke="#45413c"/><path d="M99.25 275.28c24.14.08 60.83-20.33 71.53-38.64A10.28 10.28 0 0 1 188.53 247c-13.13 22.46-45.34 43.6-74.71 45.16a58.2 58.2 0 0 1-14.57-1" fill="#fff" stroke-width="4" stroke-linejoin="round" stroke-linecap="round" stroke="#45413c"/><ellipse cx="109.08" cy="229.48" rx="8.68" ry="3.47" transform="rotate(-34.57 109.088 229.5)" fill="#ffb0ca"/><ellipse cx="158.91" cy="212.51" rx="3.47" ry="8.68" transform="rotate(-77.81 158.904 212.512)" fill="#ffb0ca"/><path d="M235.07 102.4c-3.24 0-4.37-3-4.8-4.18l-.12-.33a29 29 0 0 1-7.08 1 11.57 11.57 0 0 1-6.14-1.44 9.74 9.74 0 0 1-4-4.9c-1.46-3.92-.71-7.55 2.05-10a4 4 0 0 1 1.7-1 23.83 23.83 0 0 1 5.44-.9 25.77 25.77 0 0 0 5.36-.86l.27-.1a3.93 3.93 0 0 0 1-.5 11.24 11.24 0 0 0-3.29-.73 48.43 48.43 0 0 1-9.4-2.14 16.92 16.92 0 0 1-9.57-9.45l-.18-.48a16.48 16.48 0 0 1-.89-8.39 18.71 18.71 0 0 1 6.15-10.67c-.15-.26-.29-.53-.42-.8a7.81 7.81 0 0 1-.57-1.26c-1.16-3.11.25-5.44 4.19-6.91a10.46 10.46 0 0 1 3.54-.8 3.88 3.88 0 0 1 2.76 1l.09.08a6.84 6.84 0 0 1 1.39 2.44c.17.45.31.92.44 1.39.6 0 1.19-.08 1.77-.08 5.65 0 10 2.62 11.64 7 1.35 3.62-.24 7-4.05 8.66l-.44.16c-1.12.42-2.46.77-3.76 1.11s-2.25.59-3 .88l-.35.13a1.81 1.81 0 0 0-.31.13 34.8 34.8 0 0 0 5.32 1.54c6.23 1.38 14.76 3.27 17.37 10.27 3 8.07 1 15.25-5.65 20.41.27.59.54 1.2.77 1.8a5 5 0 0 1-.07 4.35 6.61 6.61 0 0 1-3.78 2.83 10 10 0 0 1-3.38.74z" fill="#ffe500"/><path d="M218.31 39.56a1.88 1.88 0 0 1 1.4.5 5.08 5.08 0 0 1 1 1.76 22.2 22.2 0 0 1 .78 2.92 18 18 0 0 1 3.3-.31c4.51 0 8.33 1.87 9.77 5.7 1 2.69-.2 4.94-3 6.13l-.34.13c-2 .74-5 1.31-6.79 2l-.34.13c-1.52.57-2.39 1.6-2 2.63a1.52 1.52 0 0 0 .91.85c4.42 2.59 19.12 2.27 22.36 10.94 3.16 8.47 0 14.81-6.3 19 .46 1 1 2.13 1.42 3.16.79 2.13.22 3.53-2.67 4.61a8.53 8.53 0 0 1-2.69.66c-1.26 0-2.13-.76-2.93-2.88-.28-.76-.51-1.38-.7-2.09a28.54 28.54 0 0 1-8.37 1.45 9.6 9.6 0 0 1-5.12-1.11 7.8 7.8 0 0 1-3.19-3.9C213.76 89 214 86 216.41 84a2.17 2.17 0 0 1 1-.53c2.34-.87 8-.7 10.79-1.75l.27-.11c1.38-.51 2.83-1.44 2.27-3-1-2.68-5.58-1.29-14-4.17a14.81 14.81 0 0 1-8.36-8.33l-.15-.41a14.32 14.32 0 0 1-.8-7.38 17.24 17.24 0 0 1 6.81-10.54 14.78 14.78 0 0 1-1.29-2.19 5.37 5.37 0 0 1-.45-1c-.75-2 .11-3.25 3-4.33a8.58 8.58 0 0 1 2.85-.68m0-4a12.36 12.36 0 0 0-4.25.93 9.39 9.39 0 0 0-4.75 3.3 6.42 6.42 0 0 0-.6 6.18c.1.27.22.6.39 1a20.36 20.36 0 0 0-5.66 10.78 18.36 18.36 0 0 0 1 9.38l.15.41v.13a18.63 18.63 0 0 0 10.69 10.56h.07c1 .35 2 .64 2.88.88a13.66 13.66 0 0 0-2.29.58 6.13 6.13 0 0 0-2.41 1.43c-3.31 3-4.25 7.5-2.52 12.13a11.85 11.85 0 0 0 4.86 5.94 13.52 13.52 0 0 0 7.14 1.71 29.27 29.27 0 0 0 5.89-.66c1.38 2.77 3.43 4.18 6.11 4.18a11.63 11.63 0 0 0 4.08-.92c6.86-2.56 5.8-7.67 5-9.75-.06-.17-.13-.35-.2-.52 6.43-5.64 8.24-13.22 5.09-21.69-2.75-7.36-10.68-9.67-17.13-11.14l.69-.24.42-.18h.18c4.8-2.06 6.86-6.56 5.13-11.19-1.94-5.21-7-8.31-13.51-8.31h-.33a9 9 0 0 0-1.82-3.12l-.09-.08-.08-.09a5.87 5.87 0 0 0-4.13-1.57z" fill="#45413c"/><path d="M168.53 116.7c-1.72 0-5.28 0-5.36-4.84-2.75-.34-7-1.28-9.07-3.93a7.77 7.77 0 0 1-1.62-4.79 7.07 7.07 0 0 1 4.36-7 3.65 3.65 0 0 1 1.66-.28 18 18 0 0 1 4.19.81 24.59 24.59 0 0 0 3.45.76l-.92-.51a37.1 37.1 0 0 1-6.11-4 13.15 13.15 0 0 1-4.43-9.52V83a12.82 12.82 0 0 1 1.64-6.38 14.51 14.51 0 0 1 7-5.94v-.29a6.47 6.47 0 0 1-.07-1.1c0-1.59.68-4.26 5.25-4.26 1.86 0 3.89.25 4.82 2.1v.1a5.53 5.53 0 0 1 .39 2.28v.72c4.66 1.39 7.58 4.69 7.58 8.75 0 3.19-2.2 5.36-5.6 5.53h-.37c-.92 0-2-.11-3-.21-.46 0-.94-.1-1.37-.13.65.46 1.42 1 2.19 1.46 4.11 2.66 9.73 6.31 9.73 12.19 0 6.56-3.28 11.19-9.29 13.21v1.11c.03 1.72-.58 4.56-5.05 4.56z" fill="#ffe500"/><path d="M168.47 67.06c2.15 0 2.75.44 3 1a4 4 0 0 1 .22 1.49 16.59 16.59 0 0 1-.22 2.26c4.41.77 7.77 3.41 7.77 7.21 0 2.15-1.44 3.42-3.7 3.53h-.27c-1.6 0-3.86-.39-5.29-.39h-.27c-1.22 0-2.1.5-2.1 1.32a1.13 1.13 0 0 0 .39.83c2.42 3 12.83 6.61 12.83 13.55 0 6.77-3.85 10.41-9.42 11.73.06.83.17 1.76.17 2.59 0 1.71-.77 2.53-3.09 2.53s-3.35-.33-3.35-3c0-.6 0-1.1.05-1.65-3.69-.16-7.93-1.21-9.53-3.3a5.88 5.88 0 0 1-1.21-3.58c0-2.26.94-4.3 3.19-5.12a1.67 1.67 0 0 1 .83-.11c1.87 0 5.78 1.59 8 1.59h.22c1.1 0 2.37-.27 2.37-1.48 0-2.15-3.58-2.37-8.76-6.61a11.12 11.12 0 0 1-3.69-8V83a10.8 10.8 0 0 1 1.38-5.39 12.93 12.93 0 0 1 7.62-5.61 10.34 10.34 0 0 1-.33-1.87 3.91 3.91 0 0 1-.06-.83c0-1.6.94-2.26 3.25-2.26m0-4c-1.7 0-7.25.45-7.25 6.26v.17a16.16 16.16 0 0 0-6.66 6.2 14.85 14.85 0 0 0-1.88 7.33v.47A15 15 0 0 0 157.26 94a5.06 5.06 0 0 0-1.23.38c-3.48 1.4-5.55 4.66-5.55 8.78a9.91 9.91 0 0 0 2.08 6.06c2.07 2.67 5.75 3.87 8.77 4.41.63 3.38 3 5.09 7.19 5.09 3.37 0 7-1.65 7.09-6.28 5.92-2.53 9.25-7.69 9.25-14.57 0-5.26-3.66-8.92-7.28-11.58a7.29 7.29 0 0 0 5.69-7.29c0-4.55-2.88-8.3-7.57-10.17a7.16 7.16 0 0 0-.52-2.36l-.05-.11v-.11c-1.61-3.2-5.24-3.2-6.61-3.2zM167 95.49zm0 0z" fill="#45413c"/><path d="M299.81 187.79a7.76 7.76 0 0 1-2.15-.34 6.25 6.25 0 0 1-3.5-2 5 5 0 0 1-.45-4.46c-2.68-1.11-6.82-3.3-8.11-6.58a8.13 8.13 0 0 1-.27-5.27c.95-3.36 3.26-5.44 6.35-5.73a2.42 2.42 0 0 1 .47 0 4.48 4.48 0 0 1 1.25.22 19.73 19.73 0 0 1 4 2 20 20 0 0 0 3.72 1.93c-.32-.35-.74-.76-1.11-1.12a40 40 0 0 1-5.05-5.84 13.82 13.82 0 0 1-1.73-10.86l.11-.41a13.5 13.5 0 0 1 3.47-6 15.24 15.24 0 0 1 8.87-4l.06-.39a6.56 6.56 0 0 1 .24-1.12 4 4 0 0 1 4.05-3.12 8.71 8.71 0 0 1 2.38.38c1.86.53 3.82 1.35 4.21 3.43v.12a5.82 5.82 0 0 1-.26 2.38c-.08.27-.17.54-.27.8 4.35 2.73 6.37 6.9 5.21 11a5.41 5.41 0 0 1-5.42 4.13 7.57 7.57 0 0 1-1.73-.21l-.38-.1c-.92-.27-2-.68-3-1.07-.62-.25-1.22-.49-1.73-.67.55.72 1.29 1.57 2.05 2.44 3.39 3.88 8 9.18 6.36 15.1-1.88 6.62-6.57 10.38-13.25 10.67-.08.41-.18.82-.29 1.22a4.13 4.13 0 0 1-4.1 3.47z" fill="#ffe500"/><path d="M310.06 136.75a7 7 0 0 1 1.83.3c2.19.62 2.68 1.25 2.8 1.88a4.14 4.14 0 0 1-.21 1.58 17.46 17.46 0 0 1-.87 2.24c4.26 2.05 6.91 5.71 5.81 9.57a3.42 3.42 0 0 1-3.49 2.68 5.4 5.4 0 0 1-1.28-.16l-.28-.07c-1.62-.47-3.81-1.51-5.26-1.92l-.28-.08a3.87 3.87 0 0 0-1-.15 1.38 1.38 0 0 0-1.49.89 1.21 1.21 0 0 0 .15 1c1.61 3.72 11.15 10.42 9.15 17.48-1.87 6.58-6.49 9.24-12.16 9.24h-.81c-.18.85-.34 1.84-.58 2.68-.36 1.28-1 1.95-2.26 1.95a6.21 6.21 0 0 1-1.6-.26c-2.36-.67-3.33-1.31-2.55-4.05.18-.62.32-1.12.53-1.67-3.7-1.23-7.71-3.52-8.73-6.11a6.11 6.11 0 0 1-.2-4c.65-2.3 2.19-4.1 4.72-4.29h.17a3.23 3.23 0 0 1 .71.15c1.9.54 5.42 3.29 7.71 3.94l.23.07a5.09 5.09 0 0 0 1.27.2 1.45 1.45 0 0 0 1.57-1c.62-2.19-3-3.44-7-9.25a11.71 11.71 0 0 1-1.43-9.24l.1-.34a11.37 11.37 0 0 1 2.95-5.09 13.64 13.64 0 0 1 9.3-3.54 12 12 0 0 1 .2-2 4.88 4.88 0 0 1 .19-.86 2 2 0 0 1 2.12-1.66m0-4a6 6 0 0 0-6 4.57c0 .09-.06.19-.09.31a16.89 16.89 0 0 0-8.58 4.35 15.4 15.4 0 0 0-4 6.83l-.1.33v.14a15.65 15.65 0 0 0 1.86 12.23 4.65 4.65 0 0 0-1-.11 4.52 4.52 0 0 0-.74.06c-3.86.4-6.84 3.06-8 7.16a10.25 10.25 0 0 0 .35 6.62c1.34 3.3 4.77 5.56 7.68 7a6.26 6.26 0 0 0 1.12 4.48 8 8 0 0 0 4.55 2.7 10.25 10.25 0 0 0 2.7.41 6.11 6.11 0 0 0 6.08-4.76c6.73-.81 11.61-5.08 13.57-12 1.55-5.44-1.33-10.31-4.33-14.08a7.26 7.26 0 0 0 .8 0 7.39 7.39 0 0 0 7.34-5.59c1.3-4.57-.56-9.16-4.79-12.37a7.29 7.29 0 0 0 .17-2.62v-.23c-.68-3.58-4.28-4.6-5.64-5a11 11 0 0 0-2.92-.45z" fill="#45413c"/><path d="M252 222.79c-1.71 0-2.92-1-3.58-2.89a19.46 19.46 0 0 1-2.59.18 8.67 8.67 0 0 1-5.29-1.4 6.66 6.66 0 0 1-2.44-3.58 6.1 6.1 0 0 1 2-6.76 3.21 3.21 0 0 1 1.37-.65 14.38 14.38 0 0 1 3.53-.29h.31a26.32 26.32 0 0 1-4.06-1.42 10.87 10.87 0 0 1-5.72-6.69l-.09-.32a10.67 10.67 0 0 1-.11-5.52 12 12 0 0 1 4.07-6.18 7.78 7.78 0 0 1-.29-.84 3.51 3.51 0 0 1 .6-3.32 5.37 5.37 0 0 1 2.84-1.6 7.83 7.83 0 0 1 2.09-.34 3.19 3.19 0 0 1 2.5 1l.08.09a4.82 4.82 0 0 1 .86 1.82c0 .1.05.2.08.3 4 .18 7 2.23 7.85 5.45a4.77 4.77 0 0 1-3.41 6l-.3.08a19.07 19.07 0 0 1-2 .43l.59.19c3.86 1.21 9.15 2.87 10.48 7.65 1.45 5.18-.07 9.59-4.29 12.55.07.21.13.41.19.6a3.86 3.86 0 0 1-.37 3.28 4.76 4.76 0 0 1-2.87 1.83 7.5 7.5 0 0 1-2.03.35z" fill="#ffe500"/><path d="M244.63 183.15a1.25 1.25 0 0 1 1 .39 3.11 3.11 0 0 1 .49 1.11 12.39 12.39 0 0 1 .32 1.81 10.79 10.79 0 0 1 1.12-.06c3.13 0 5.76 1.34 6.5 4 .46 1.68-.38 3-2.11 3.55l-.22.06c-1.24.34-3.09.53-4.2.84l-.22.06c-.94.27-1.52.84-1.34 1.49a1 1 0 0 0 .48.56c2.53 1.79 11.43 2.36 12.94 7.77s-.75 8.95-4.8 11.18c.22.63.51 1.34.69 2 .37 1.33-.05 2.15-1.85 2.65a5.84 5.84 0 0 1-1.48.27c-.86 0-1.4-.48-1.79-1.9a12.27 12.27 0 0 1-.32-1.3 18.54 18.54 0 0 1-4.06.48 7 7 0 0 1-4.08-1 4.71 4.71 0 0 1-1.72-2.53 4.07 4.07 0 0 1 1.38-4.68 1.39 1.39 0 0 1 .62-.27c1.46-.4 4.85 0 6.61-.5h.17c.86-.24 1.79-.73 1.52-1.68-.46-1.67-3.3-1.06-8.25-3.25a9 9 0 0 1-4.62-5.46l-.07-.26a8.65 8.65 0 0 1-.1-4.5 10.47 10.47 0 0 1 4.66-6 9.24 9.24 0 0 1-.67-1.38 3.94 3.94 0 0 1-.22-.63c-.34-1.25.24-2 2-2.47a6.09 6.09 0 0 1 1.56-.27m0-4a9.83 9.83 0 0 0-2.63.42c-5.56 1.55-5.2 5.67-4.9 7.07a13.76 13.76 0 0 0-3.73 6.34 12.78 12.78 0 0 0 .13 6.52l.07.25v.14a13.15 13.15 0 0 0 5.13 7 8 8 0 0 0-2.59 8.78 8.62 8.62 0 0 0 3.22 4.68 10.62 10.62 0 0 0 6.43 1.76c.45 0 .91 0 1.38-.05a5.35 5.35 0 0 0 4.92 2.66 9.25 9.25 0 0 0 2.55-.42c2.73-.76 5.51-3 4.8-6.87 4-3.44 5.48-8.34 3.94-13.86-1.08-3.9-4.18-6.05-7.33-7.42a6.59 6.59 0 0 0 2-6.91c-1-3.68-4.12-6.16-8.28-6.77a6.14 6.14 0 0 0-.88-1.52l-.08-.09-.07-.09a5.25 5.25 0 0 0-4-1.7z" fill="#45413c"/><path d="M249.68 282.49a3 3 0 0 0-1.72 3.13l3.21 21.9a7.31 7.31 0 0 0-4.77.29 7.42 7.42 0 0 0 4.18 14.19 7.66 7.66 0 0 0 5.93-8.71L253.39 292l21.26-8.47 2.09 14.26a7.42 7.42 0 1 0-.59 14.44 7.64 7.64 0 0 0 5.93-8.7L277.75 274a3 3 0 0 0-4.16-2.27z" fill="#656769"/><path d="M247.18 313.17a7.32 7.32 0 0 1 4.77-.29l-.78-5.36a7.31 7.31 0 0 0-4.77.29 7.39 7.39 0 0 0-3.62 10.55 7.47 7.47 0 0 1 4.4-5.19zm26.41-41.47-23.91 10.79a3 3 0 0 0-1.72 3.13l.79 5.36a2.94 2.94 0 0 1 1.71-3.13l23.92-10.79a3 3 0 0 1 4.16 2.27l-.79-5.36a3 3 0 0 0-4.16-2.27z" fill="#87898c"/><path d="M249.68 282.49a3 3 0 0 0-1.72 3.13l3.21 21.9a7.31 7.31 0 0 0-4.77.29 7.42 7.42 0 0 0 4.18 14.19 7.66 7.66 0 0 0 5.93-8.71L253.39 292l21.26-8.47 2.09 14.26a7.42 7.42 0 1 0-.59 14.44 7.64 7.64 0 0 0 5.93-8.7L277.75 274a3 3 0 0 0-4.16-2.27z" stroke-width="3" stroke-linejoin="round" stroke-linecap="round" stroke="#45413c" fill="none"/><path d="M315.93 274.27a2.58 2.58 0 0 0-2.31 2.07L310 295.2a6.44 6.44 0 1 0-4.64 11.66 6.64 6.64 0 0 0 7.36-5.42l3.56-18.32 19.85-.83-2.39 12.28a6.44 6.44 0 1 0-4.64 11.66 6.64 6.64 0 0 0 7.36-5.42l4.95-25.44a2.58 2.58 0 0 0-2.75-3.06z" fill="#656769"/><path d="M305.07 298.68a6.36 6.36 0 0 1 4 1.13l.9-4.61a6.43 6.43 0 0 0-9.69 3 6.5 6.5 0 0 0-.3 3.44 6.46 6.46 0 0 1 5.09-2.96zm33.55-26.37-22.69 2a2.58 2.58 0 0 0-2.31 2.07l-.89 4.62a2.58 2.58 0 0 1 2.3-2.08l22.69-2a2.58 2.58 0 0 1 2.75 3.06l.9-4.61a2.58 2.58 0 0 0-2.75-3.06z" fill="#87898c"/><path d="M315.93 274.27a2.58 2.58 0 0 0-2.31 2.07L310 295.2a6.44 6.44 0 1 0-4.64 11.66 6.64 6.64 0 0 0 7.36-5.42l3.56-18.32 19.85-.83-2.39 12.28a6.44 6.44 0 1 0-4.64 11.66 6.64 6.64 0 0 0 7.36-5.42l4.95-25.44a2.58 2.58 0 0 0-2.75-3.06z" stroke-width="3" stroke-linejoin="round" stroke-linecap="round" stroke="#45413c" fill="none"/></g></svg>