<svg xmlns="http://www.w3.org/2000/svg" viewBox="0 0 370 370"><g data-name="Scenes"><path d="M232.65 333v-22h2.32c12.78 0 24-3.61 32.56-10.57A11.85 11.85 0 0 0 252.62 282c-5.78 4.67-13.44 5.6-20 5.25v-23.09A88.91 88.91 0 1 0 119 272.6a37.13 37.13 0 0 0-2.77 14.14c0 19.61 15 35.5 33.47 35.5V333" fill="#fff"/><path d="M183.71 265.43A89 89 0 0 1 88 176.73a91 91 0 0 1 .6-10.37 89 89 0 0 0 89 122.68 89.1 89.1 0 0 0 81.5-78.37 89.19 89.19 0 0 1-75.39 54.76z" fill="#f0f0f0"/><path d="M153.08 287.51a88.71 88.71 0 0 1-34.14-14.89" stroke-linecap="round" stroke="#45413c" stroke-linejoin="round" stroke-width="4" fill="none"/><path d="M295.66 178c-.22-3.7-3.4-6.52-6.48-6.26l-32.31 1.95c-12.86-38-49.57-64.39-91.22-61.89a89.56 89.56 0 0 0-84.11 85.79l84.77-5.09 82.48-5 40.57-2.43a6.71 6.71 0 0 0 6.3-7.07z" fill="#ff6242"/><path d="M128.76 183.57a13.44 13.44 0 0 1 12.61-14.21c9-.55 13.78 5.42 14.21 12.6z" fill="#fff"/><circle cx="165.65" cy="111.83" r="8.95" fill="#ff6242" stroke-linecap="round" stroke="#45413c" stroke-linejoin="round" stroke-width="4"/><path d="M165.88 111.82h-.24a89.57 89.57 0 0 0-77.92 56.53 110.57 110.57 0 0 1 162.54-9.58c-13.55-24.52-43.39-49.31-84.38-46.95z" fill="#ff866e"/><path d="M295.66 178c-.22-3.7-3.4-6.52-6.48-6.26l-32.31 1.95c-12.86-38-49.57-64.39-91.22-61.89a89.56 89.56 0 0 0-84.11 85.79l84.77-5.09 82.48-5 40.57-2.43a6.71 6.71 0 0 0 6.3-7.07zm-166.9 5.54a13.44 13.44 0 0 1 12.61-14.21c9-.55 13.78 5.42 14.21 12.6z" stroke-linecap="round" stroke="#45413c" stroke-linejoin="round" stroke-width="4" fill="none"/><path d="m155.58 182 5.58-.33a4.48 4.48 0 0 1 4.74 4.2l.4 6.7" stroke-linecap="round" stroke="#45413c" stroke-linejoin="round" stroke-width="4" fill="none"/><path d="M258.33 179.76c-.5-2-.83-4.09-1.46-6" stroke-linecap="round" stroke="#45413c" stroke-linejoin="round" stroke-width="4" fill="#fff"/><path d="M157.27 229.29a7.12 7.12 0 0 1-14 2.82l-1.41-7a13.1 13.1 0 0 0 14-2.82z" fill="#ffb0ca" stroke-linecap="round" stroke="#45413c" stroke-linejoin="round" stroke-width="4"/><path d="M232.65 333v-22h2.32c12.78 0 24-3.61 32.56-10.57A11.85 11.85 0 0 0 252.62 282c-5.78 4.67-13.44 5.6-20 5.25v-23.09A88.91 88.91 0 1 0 119 272.6a37.13 37.13 0 0 0-2.77 14.14c0 19.61 15 35.5 33.47 35.5V333" stroke-linecap="round" stroke="#45413c" stroke-linejoin="round" stroke-width="4" fill="none"/><path d="M159.47 270c-3.24-7.61-51-3.54-51 19.7a18.79 18.79 0 1 0 32.72-12.57c6.81-.63 19.86-3.4 18.28-7.13z" stroke-linecap="round" stroke="#45413c" stroke-linejoin="round" stroke-width="4" fill="#fff"/><path d="M149.66 333v-33.08" stroke-linecap="round" stroke="#45413c" stroke-linejoin="round" stroke-width="4" fill="none"/><circle cx="97.32" cy="206.89" r="31.42" stroke-linecap="round" stroke="#45413c" stroke-linejoin="round" stroke-width="4" fill="#fff"/><circle cx="111.91" cy="206.89" r="4.46" fill="#45413c"/><circle cx="192.36" cy="192.53" r="31.42" stroke-linecap="round" stroke="#45413c" stroke-linejoin="round" stroke-width="4" fill="#fff"/><circle cx="202.5" cy="197.62" r="4.46" fill="#45413c"/><rect x="231.54" y="212.44" width="43.67" height="108.43" rx="6" transform="rotate(-90 253.37 266.65)" fill="#fff5e3" stroke-linecap="round" stroke="#45413c" stroke-linejoin="round" stroke-width="4"/><path fill="#e04122" d="M212.01 278.34v-23.37h12.16v23.37z"/><path fill="#ff6242" d="M236.01 278.34v-23.37h12.16v23.37z"/><path fill="#ff866e" d="M260.01 278.34v-23.37h12.16v23.37z"/><path fill="#ffa694" d="M284.01 278.34v-23.37h12.16v23.37z"/><rect x="229.59" y="192.78" width="43.67" height="108.43" rx="6" transform="rotate(-63.48 251.436 246.997)" fill="#fff5e3" stroke-linecap="round" stroke="#45413c" stroke-linejoin="round" stroke-width="4"/><path fill="#ebcb00" d="m209.207 238.995 10.435-20.911 10.88 5.43-10.434 20.91z"/><path fill="#ffe500" d="m230.681 249.707 10.435-20.911 10.88 5.43-10.434 20.91z"/><path fill="#fff48c" d="m252.15 260.433 10.435-20.911 10.88 5.43-10.434 20.91z"/><path fill="#fffacf" d="m273.624 271.145 10.435-20.911 10.88 5.43-10.434 20.91z"/><rect x="236.58" y="181.4" width="43.67" height="108.43" rx="6" transform="rotate(-40.05 258.44 235.616)" fill="#fff5e3" stroke-linecap="round" stroke="#45413c" stroke-linejoin="round" stroke-width="4"/><path fill="#00ad85" d="m222.86 211.49 17.89-15.038 7.824 9.309-17.89 15.037z"/><path fill="#00dba8" d="m238.3 229.867 17.889-15.038 7.824 9.309-17.889 15.037z"/><path fill="#00f5bc" d="m253.747 248.237 17.889-15.037 7.824 9.308-17.889 15.038z"/><path fill="#8cffe4" d="m269.186 266.614 17.89-15.037 7.824 9.308-17.89 15.038z"/><rect x="248.06" y="177.61" width="43.67" height="108.43" rx="6" transform="rotate(-20.53 269.83 231.787)" fill="#fff5e3" stroke-linecap="round" stroke="#45413c" stroke-linejoin="round" stroke-width="4"/><path fill="#009fd9" d="m245.188 198.013 21.968-8.18 4.256 11.431-21.968 8.18z"/><path fill="#00b8f0" d="m252.865 219.639 21.886-8.196 4.265 11.388-21.886 8.195z"/><path fill="#4acfff" d="m261.294 242.118 21.886-8.196 4.265 11.388-21.886 8.196z"/><path fill="#80ddff" d="m269.704 264.591 21.886-8.196 4.264 11.388-21.886 8.196z"/><rect x="263.92" y="180.06" width="43.67" height="108.43" rx="6" fill="#fff5e3" stroke-linecap="round" stroke="#45413c" stroke-linejoin="round" stroke-width="4"/><path fill="#803ec2" d="M274.06 192.92h23.37v12.16h-23.37z"/><path fill="#a05ae5" d="M274.06 216.92h23.37v12.16h-23.37z"/><path fill="#bf8df2" d="M274.06 240.92h23.37v12.16h-23.37z"/><path fill="#dabff5" d="M274.06 264.92h23.37v12.16h-23.37z"/><circle cx="274.35" cy="283.29" r="17.23" stroke-linecap="round" stroke="#45413c" stroke-linejoin="round" stroke-width="4" fill="#fff"/><path d="M35.69 48.48a11.64 11.64 0 0 1 11.53-11.35c52-.49 223.58.44 275.68 1.84a11.63 11.63 0 0 1 11.33 11.25c.55 17.48.36 36.32-.35 54a11.62 11.62 0 0 1-11.73 11.16l-227.56-.83c-1.24 8.87.29 14.84 1.86 20.9-4.61-3.16-12.31-6.51-21.33-20.5l-27.46.34a11.63 11.63 0 0 1-11.78-11.49c-.29-17.18-.7-34.52-.19-55.32z" stroke="#45413c" stroke-linejoin="round" stroke-width="4" fill="#fff"/><path d="M61.6 84.84c-.22 2.16-.31 3.87-.71 5.89-.48 1.23-2.46 1.93-4.08 1.93s-3.39-.79-3.56-2.24a108.32 108.32 0 0 1-.53-12.12c0-4.75.27-9.49.57-13.93 1.28-1.58 4.7-2.37 8-2.37 6.63 0 13.62 2.68 13.62 11.25 0 7.42-5.85 11.59-12.79 11.59zM61.33 77a1.81 1.81 0 0 0 1.23.44A4.38 4.38 0 0 0 67.09 73a3.71 3.71 0 0 0-3.74-4 3.47 3.47 0 0 0-2 .57zm24.91-3.45v4.31c0 2.24-.17 4.79-.17 6.9 0 .74.26 1 .61 1.23 1.54.79 2 1.1 2 3 0 1.4-.44 2.77-1.89 3.12a34 34 0 0 1-5.45.26c-3.91 0-5.36-.31-5.36-3.21 0-1 .09-2.1 1-2.59 1-.57 1.62-1 1.67-1.58v-9.62c0-1 .09-2.2.09-3.29a9.32 9.32 0 0 0-.27-2.64c-.21-.66-.65-.92-1.36-1.19s-1.19-1.25-1.19-2.51a4.77 4.77 0 0 1 .44-2.2c.79-1.41 3.38-1.54 5.44-1.54h1c4.09 0 6 .62 6.11 3v.49a2.94 2.94 0 0 1-2.11 3.16.86.86 0 0 0-.52.79c-.04 1.26-.04 2.84-.04 4.11zm27.63-5.13a3.38 3.38 0 0 1-3.64 3.69 6.31 6.31 0 0 1-2-.4c-1.32-.44-2.59-1.19-4.22-1.19-4.74 0-6 3.83-6 6.77s2 6 5.4 6.1c4.4.18 5.5-3.11 8.48-3.11a6.48 6.48 0 0 1 .88 0 2.56 2.56 0 0 1 2.07 2.72 5.91 5.91 0 0 1-.18 1.53c-1.09 4.92-7 7.6-11.37 7.6C95.07 92.09 90 84.71 90 77.25c0-8.22 5.09-15 13.66-15.25a13.17 13.17 0 0 1 7.86 2.29 5.09 5.09 0 0 1 2.35 4.13zm12.92 11.2a.23.23 0 0 0-.22.13c-1.1 4 .31 12.74-3.21 12.74-4 0-5.18-2.07-5.44-5.89-.66-7.38-.49-17.7-.8-23.28a1.35 1.35 0 0 1 1.06-1.32 13.53 13.53 0 0 1 2.5-.26c1.72 0 3.17.13 4.31 1.54a9 9 0 0 1 1.67 5.88c0 .75 0 1.54-.13 2.33 1.8-1.58 3.77-4 5.44-5.67 1.85-1.75 4-3 5.8-3a3.25 3.25 0 0 1 3.12 3.18c0 3.51-6.5 7.69-8.7 10 1.41 3 5 6.58 7.43 9.62l.13.13c.75.92 1.89 2.37 1.89 3.69A2.13 2.13 0 0 1 141 91c-.83.88-2.55 1.23-4.13 1.23a8.84 8.84 0 0 1-2.94-.44c-2.59-.92-3.69-3.64-4.79-6.46l-.22-.57c-.61-1.67-1.45-3.82-2-5a.17.17 0 0 0-.13-.14zm44.41 6.54c0 3.08-1 6.24-4.79 6.24-4.78 0-3.64-8.57-4.21-9.88a3.37 3.37 0 0 0-2.29-.62c-1 0-2 .22-2.11.62-.26.87-.3 1.62-.52 2.54-.62 2.6-1.06 7.16-4.35 7.16-3.47 0-4.44-4.52-4.26-7 0-4.18 1-8.92 1.58-12.79 1-6.06 3.07-10.54 9.44-10.54 9.18 0 10.15 9.62 11 18.14.07 1.48.51 3.97.51 6.13zm-13.35-12.39c0 1.63.61 1.94 2 1.94h.22c1.45 0 2.06-.35 2.06-2s-.7-4.79-2.11-4.79c-1.16.02-2.17 2.7-2.17 4.85zM203 68.42a3.39 3.39 0 0 1-3.65 3.69 6.36 6.36 0 0 1-2-.4c-1.32-.44-2.59-1.19-4.22-1.19-4.74 0-6 3.83-6 6.77s2 6 5.4 6.1c4.39.18 5.49-3.11 8.48-3.11a6.48 6.48 0 0 1 .88 0A2.56 2.56 0 0 1 204 83a6.35 6.35 0 0 1-.17 1.53c-1.1 4.92-7 7.6-11.38 7.6-8.21 0-13.31-7.38-13.31-14.84 0-8.22 5.1-15 13.66-15.25a13.2 13.2 0 0 1 7.87 2.29 5.09 5.09 0 0 1 2.33 4.09zm28.43 8.87c0 7.6-3.78 15.16-12.83 15.16-9.57 0-13-6.77-13-15.42 0-8.31 4.57-15.07 13.05-15.07a12.08 12.08 0 0 1 10.63 5.84c1.72 2.68 2.15 6.28 2.15 9.49zm-12.65-7.16c-3.38 0-4.35 3.56-4.35 7 0 2.68 1 6.81 4.17 6.81 3.61 0 4.44-4 4.48-6.94.09-4-.87-6.87-4.3-6.87zM238.24 62c2.5 0 4.48.27 4.74 3.78 0 .35.05.71.05 1.06-.05 1.58-.44 9-.44 13.18a11.1 11.1 0 0 0 .22 2.76c2.81.57 5.31 0 7.95.84a2.77 2.77 0 0 1 2 3.07c0 5.63-3.07 5.72-7.6 5.72h-1.71c-5.19-.13-8.66-1.54-9.36-6.41a60.91 60.91 0 0 1-.57-8.48 106.75 106.75 0 0 1 .92-12.92c.46-2.2 2.83-2.6 3.8-2.6zm40.9 15.29c0 7.6-3.78 15.16-12.83 15.16-9.57 0-13-6.77-13-15.42 0-8.31 4.57-15.07 13-15.07A12.09 12.09 0 0 1 277 67.8c1.7 2.68 2.14 6.28 2.14 9.49zm-12.65-7.16c-3.38 0-4.35 3.56-4.35 7 0 2.68 1 6.81 4.17 6.81 3.6 0 4.44-4 4.48-6.94.09-4-.88-6.87-4.3-6.87zm34 22.4c-4.44 0-7.78-6.85-10.28-9.22a15.39 15.39 0 0 1 .18 2.59c0 2.85-.18 4.48-.79 5.45s-2.16 1.49-3.61 1.49c-2.59 0-3.95-1-4-3.47-.26-6.94-.35-10.63-.35-13v-4.48c.14-2.2.22-4.22 2-6.73 2.2-3.12 6.55-3.29 8.57-3.29 6.94 0 11.11 3 11.42 9.27v.66c0 5.31-3.78 7.64-5.58 8-.26.09-.7.13-.7.27s.13.22.17.26 1.19 1.45 1.63 2.06c1.23 1.72 2.94 3.52 3.78 4.84a5.88 5.88 0 0 1 1 3c0 1.36-1.15 2.24-3.25 2.32zm-8-24.2a3.23 3.23 0 0 0-2.28.7v5.18a5 5 0 0 0 1.19.18c2.28 0 4-1 4-3.43a2.78 2.78 0 0 0-2.91-2.63zm18.85-7.51a8.69 8.69 0 0 1 4 .92 5.49 5.49 0 0 1 2.95 3.78 13.6 13.6 0 0 1 .44 3.64c0 4.88-1.72 10.9-2.95 12.87-.79 1.28-1.93 2.46-3.33 2.46a2.54 2.54 0 0 1-1.59-.44c-2.32-1.58-2.72-5.22-2.72-9.88 0-2.06.09-4.35.09-6.77l-.09-1.84v-2.15a4.41 4.41 0 0 1 .13-1.14c.39-1.06 1.67-1.45 3.07-1.45zM313 86c1.8 0 3.47 1.06 3.47 2.94 0 2.6-2.28 3.74-4.57 3.74a3.11 3.11 0 0 1-3.12-2.9 3.69 3.69 0 0 1 2.38-3.38A4.39 4.39 0 0 1 313 86z" fill="#ff5038"/></g></svg>