<svg xmlns="http://www.w3.org/2000/svg" viewBox="0 0 370 370"><g data-name="Scenes"><ellipse cx="113.91" cy="315.83" rx="58.24" ry="6.3" fill="#e0e0e0"/><path d="M116.16 310H75.67a2.92 2.92 0 0 1-2.77-3.87l3.88-11.49a2.94 2.94 0 0 1 2.78-2h36.6z" stroke-linejoin="round" stroke-width="4" stroke-linecap="round" stroke="#45413c" fill="#bdbec0"/><path d="M204 276.54a5.87 5.87 0 0 1-5.87 5.87h-25.96V160h25.92a5.87 5.87 0 0 1 5.87 5.87z" fill="#87898c" stroke-linejoin="round" stroke-width="4" stroke-linecap="round" stroke="#45413c"/><rect x="26.15" y="159.95" width="163.39" height="122.46" rx="5.87" fill="#f0f0f0"/><path d="M189.54 171v-5.2a5.86 5.86 0 0 0-5.86-5.87H32a5.87 5.87 0 0 0-5.87 5.87v5.2z" fill="#fff"/><rect x="26.15" y="159.95" width="163.39" height="122.46" rx="5.87" fill="none" stroke-linejoin="round" stroke-width="4" stroke-linecap="round" stroke="#45413c"/><path d="m123.09 292.67-4.2-60.45a11.73 11.73 0 0 0-11.7-10.95h-7.32a11.72 11.72 0 0 0-11.7 10.91l-5 71.58A5.86 5.86 0 0 0 89 310h69.41a2.93 2.93 0 0 0 2.72-4l-3.48-11.5a3 3 0 0 0-2.72-1.83z" stroke-linejoin="round" stroke-width="4" stroke-linecap="round" stroke="#45413c" fill="#e0e0e0"/><path fill="none" stroke-linejoin="round" stroke-width="4" stroke-linecap="round" stroke="#45413c" d="M38.39 269.83v-12.12m9.58 12.12v-12.12m9.58 12.12v-12.12"/><ellipse cx="219.86" cy="325.32" rx="53.25" ry="7.68" fill="#e0e0e0"/><path d="M111.31 287.86a12.51 12.51 0 0 1-6.23.48 19.63 19.63 0 0 1-9.91-5c-6.67-6.11-8.3-14.81-3.72-19.81s13.4-4.14 20.06 2h0a19.68 19.68 0 0 1 5.89 9.43c1 4 .22 7.77-2.17 10.38a9.76 9.76 0 0 1-3.92 2.52zm-13.48-19.3a1.24 1.24 0 0 0-.5.32c-.88 1-.22 4.81 3.52 8.23a12.14 12.14 0 0 0 6 3.15 2 2 0 0 0 2.69-2.93 12.2 12.2 0 0 0-3.67-5.67h0c-3.26-2.96-6.62-3.6-8.04-3.1zM132 313.09a12.62 12.62 0 0 1-6.25-.25 19.65 19.65 0 0 1-9.25-6.16c-5.91-6.84-6.52-15.67-1.38-20.11s13.79-2.55 19.69 4.29h0a19.69 19.69 0 0 1 4.74 10.05c.54 4.08-.69 7.75-3.37 10.06a9.9 9.9 0 0 1-4.18 2.12zm-11.14-20.74a1.25 1.25 0 0 0-.53.25c-1 .85-.78 4.76 2.53 8.59a12.13 12.13 0 0 0 5.56 3.83A3.09 3.09 0 0 0 131 305a3.12 3.12 0 0 0 .44-2.53 12.15 12.15 0 0 0-3-6.06h0c-2.89-3.41-6.15-4.41-7.62-4.06zm54.58 22.55a12.46 12.46 0 0 1-4.66 4.16 19.7 19.7 0 0 1-10.94 2c-9-.83-15.57-6.77-15-13.53s8.17-11.4 17.17-10.57h0a19.62 19.62 0 0 1 10.39 4c3.22 2.56 4.88 6.06 4.55 9.57a9.6 9.6 0 0 1-1.51 4.37zM153 307.69a1.22 1.22 0 0 0-.21.55c-.12 1.3 2.74 4 7.78 4.43a12.18 12.18 0 0 0 6.66-1.1c1-.55 1.75-1.27 1.8-1.83a3.13 3.13 0 0 0-1.43-2.13 12.22 12.22 0 0 0-6.35-2.3h0c-4.33-.4-7.39 1.12-8.25 2.38z" fill="#87898c" stroke-linejoin="round" stroke-width="4" stroke-linecap="round" stroke="#45413c"/><path d="M119.91 296.65a4.34 4.34 0 0 1-3-1.41l-10.6-11.75a3.92 3.92 0 0 1 .44-5.71 4.39 4.39 0 0 1 6 .45L123.31 290a3.91 3.91 0 0 1-.44 5.7 4.33 4.33 0 0 1-2.96.95zm31.54 13.6a4.33 4.33 0 0 1-3.26.72l-15.56-2.85a3.9 3.9 0 0 1-3.13-4.78 4.38 4.38 0 0 1 5-3.3l15.56 2.85a3.91 3.91 0 0 1 3.13 4.79 4.38 4.38 0 0 1-1.74 2.57z" fill="#87898c" stroke-linejoin="round" stroke-width="4" stroke-linecap="round" stroke="#45413c"/><path d="M272.57 256.85a12.1 12.1 0 0 1-3.57-23.33c.76-.3 50.78-20.14 70-44.9a12.1 12.1 0 0 1 19.11 14.84c-23.38 30.1-78 51.68-80.3 52.58a12.11 12.11 0 0 1-5.24.81z" fill="#fff" stroke-linejoin="round" stroke-width="4" stroke-linecap="round" stroke="#45413c"/><path d="M205.11 284.55h5.31a19.39 19.39 0 1 1 0 38.78h-56.76a3.6 3.6 0 0 1-1.73-6.75l22.82-12.5c-33.32-64.73 38.69-77.37 52.48-76.83 0 0 49-22.05 47.33 1.15s11.56 92-50.32 89.13" fill="#fff" stroke-linejoin="round" stroke-width="4" stroke-linecap="round" stroke="#45413c"/><path fill="none" stroke-linejoin="round" stroke-width="4" stroke-linecap="round" stroke="#45413c" d="m174.75 304.08 11.97-8.33"/><path d="M248.51 259.81c-.33 18.73.56 42.08 2.41 47a12 12 0 0 1-6 16 11.91 11.91 0 0 1-5 1.09 12.22 12.22 0 0 1-11.08-7.11c-4.83-10.56-4.79-43.62-4.54-57.35" fill="#fff" stroke-linejoin="round" stroke-width="4" stroke-linecap="round" stroke="#45413c"/><path d="M269.56 241c-.89 22-3.53 42.43-10.41 59.09l17.15 17.53 13.82-20.25c.73-17.58-8.6-36.76-20.56-56.37z" fill="#ff6242" stroke-linejoin="round" stroke-width="4" stroke-linecap="round" stroke="#45413c"/><ellipse cx="269.56" cy="241.02" rx="9.88" ry="7.53" transform="rotate(-5.02 269.65 241.068)" fill="#ff6242" stroke-linejoin="round" stroke-width="4" stroke-linecap="round" stroke="#45413c"/><circle cx="258.05" cy="159.8" r="77.07" fill="#fff"/><path d="M258.05 214.2a77.07 77.07 0 0 1-76.23-65.73 77.07 77.07 0 1 0 152.46 0 77.07 77.07 0 0 1-76.23 65.73z" fill="#f0f0f0"/><circle cx="258.05" cy="159.8" r="77.07" fill="none" stroke-linejoin="round" stroke-width="4" stroke-linecap="round" stroke="#45413c"/><circle cx="231.96" cy="158.76" r="22.81" fill="#fff" stroke-linejoin="round" stroke-width="4" stroke-linecap="round" stroke="#45413c"/><circle cx="233.28" cy="147.1" r="2.98" fill="#45413c"/><path d="M233.77 181.17c-11.09-.4-24.31-6.22-20-13.27s14.71 2.91 21.19-.76 22.61-3.92 15.1 5.58c-6.06 7.68-16.29 8.45-16.29 8.45z" fill="#4acfff" stroke="#009fd9" stroke-linejoin="round" stroke-width="4" stroke-linecap="round"/><circle cx="311.63" cy="150.07" r="22.81" fill="#fff" stroke-linejoin="round" stroke-width="4" stroke-linecap="round" stroke="#45413c"/><circle cx="311.01" cy="140.11" r="2.98" fill="#45413c"/><path d="M313.44 172.48c-11.09-.39-24.32-6.22-20-13.26s14.7 2.91 21.19-.77 22.6-3.91 15.1 5.58c-6.1 7.68-16.29 8.45-16.29 8.45z" fill="#4acfff" stroke="#009fd9" stroke-linejoin="round" stroke-width="4" stroke-linecap="round"/><path d="M264.11 181.06a10.48 10.48 0 1 1 21 .15l-.11 10.48a21.85 21.85 0 0 0-21-.15z" fill="#fcd" stroke-linejoin="round" stroke-width="4" stroke-linecap="round" stroke="#45413c"/><path d="m174.75 304.08 7.69 19-12.7 2.25s-7.37-17.69-7-17.94 12.01-3.31 12.01-3.31z" fill="#adc4d9" stroke-linejoin="round" stroke-width="4" stroke-linecap="round" stroke="#45413c"/><circle cx="231.96" cy="158.76" r="22.81" fill="none" stroke-linejoin="round" stroke-width="4" stroke-linecap="round" stroke="#45413c"/><circle cx="311.63" cy="150.07" r="22.81" fill="none" stroke-linejoin="round" stroke-width="4" stroke-linecap="round" stroke="#45413c"/><path d="M24.06 37.37a11.9 11.9 0 0 0-11.6 11.78c-.5 53.13 1.68 37.66 1.88 66.13a11.8 11.8 0 0 0 11.5 11.57c17.86.57 157.14.38 175.17-.35a11.89 11.89 0 0 0 11.41-12l-.84-12.88 21.35 1.91-21-21.8.35-32.12a11.91 11.91 0 0 0-11.7-12c-17.52-.34-155.27-.75-176.52-.24z" fill="#fff" stroke-linejoin="round" stroke-width="4" stroke="#45413c"/><path d="M52.45 103.52a57.17 57.17 0 0 1-.62-9.3c0-4.86-.76-5.55-4-5.55-3 0-4.58.48-4.58 3.75 0 2.84.35 4.86.35 6.87 0 4-1.39 7.77-5 7.77a5.92 5.92 0 0 1-3.54-1.18c-2-1.38-3.27-4.79-4.1-8.6a74.43 74.43 0 0 1-1.28-14.58c0-3.41.21-8.34.63-12.29a21.83 21.83 0 0 1 1.18-6.32c1-3.06 4.16-4 6-4 3.88 0 5.55 2.36 5.55 5.83v6.32c0 3.47.42 6 3.68 6 4.72 0 5.14-1.46 5.14-8.47v-1.45c0-5.2 2.78-8.61 7.29-8.61 3.89 0 6 1.6 6.52 7.16.14 1.52.21 3.75.21 6.38 0 8.75-.69 21.87-1.87 28.47-.56 3.26-1.95 5.76-5.35 5.76-2.87 0-5.58-.69-6.21-3.96zm34.3-24.85c4.51.07 8.54.07 8.54 3.47 0 6.66-6.88 6.53-12 7.08v.9c0 2.09.69 4.52 3.61 5a33.53 33.53 0 0 0 3.75.21c2.77 0 5.27-.62 7.84-.62a4.29 4.29 0 0 1 4.24 4.44c0 7.22-8.89 8.68-14.72 8.68-7.22 0-12.43-1.81-14.79-4.86-2.78-3.61-3.82-11.11-3.82-18 0-8.82 2.15-18.82 7.29-22.22 2.64-1.74 8.06-3.26 13.89-3.26 5.27 0 11.24 1.39 11.24 7a7.85 7.85 0 0 1-.13 1.74c-1.81 5.76-16.74.69-18.12 6.24a10.7 10.7 0 0 0-.21 2.29 11.75 11.75 0 0 0 .14 2zm26.1-18.96c4 0 7.08.42 7.5 6 0 .55.07 1.11.07 1.66-.07 2.5-.7 14.17-.7 20.83a17.29 17.29 0 0 0 .35 4.37c4.44.91 8.4-.07 12.57 1.32 2.22.77 3.19 2.16 3.19 4.86 0 8.89-4.86 9-12 9-1.46 0-2.15-.07-2.71-.07-8.19-.21-13.67-2.43-14.79-10.14a97.94 97.94 0 0 1-.9-13.4 166.87 166.87 0 0 1 1.46-20.41c.68-3.46 4.43-4.02 5.96-4.02zm39.37 36.04c-.35 3.4-.49 6.11-1.12 9.3-.76 2-3.88 3.06-6.45 3.06s-5.35-1.25-5.63-3.54a172.8 172.8 0 0 1-.83-19.17c0-7.49.42-15 .9-22 2-2.49 7.43-3.74 12.64-3.74 10.48 0 21.52 4.23 21.52 17.77 0 11.73-9.23 18.33-20.2 18.33zm-.42-12.43a2.86 2.86 0 0 0 1.94.69 6.92 6.92 0 0 0 7.15-6.94c0-3.47-2.29-6.25-5.9-6.25a5.35 5.35 0 0 0-3.19.91zm33.81-25.55a13.89 13.89 0 0 1 6.25 1.46 8.74 8.74 0 0 1 4.65 6 21.41 21.41 0 0 1 .69 5.77c0 7.71-2.71 17.22-4.65 20.34-1.25 2-3.06 3.89-5.28 3.89a4.09 4.09 0 0 1-2.5-.69c-3.68-2.5-4.3-8.26-4.3-15.62 0-3.27.14-6.88.14-10.69l-.14-2.92c0-.69-.07-2.08-.07-2.71v-.69a7.14 7.14 0 0 1 .21-1.81c.76-1.7 2.78-2.33 5-2.33zm2.63 39.85c2.85 0 5.49 1.67 5.49 4.65 0 4.1-3.61 5.91-7.22 5.91-2.15 0-4.93-1.74-4.93-4.59a5.83 5.83 0 0 1 3.75-5.34 7 7 0 0 1 2.91-.63z" fill="#ff5038"/></g></svg>